<svg xmlns="http://www.w3.org/2000/svg" xmlns:xlink="http://www.w3.org/1999/xlink" version="1.1" width="1080" height="1080" viewBox="0 0 1080 1080" xml:space="preserve">
<desc>Created with Fabric.js 5.2.4</desc>
<defs>
</defs>
<g transform="matrix(1 0 0 1 540 540)" id="b484719c-45ae-4aca-b0da-aef866f0dbc4">
<rect style="stroke: none; stroke-width: 1; stroke-dasharray: none; stroke-linecap: butt; stroke-dashoffset: 0; stroke-linejoin: miter; stroke-miterlimit: 4; fill: rgb(255,255,255); fill-rule: nonzero; opacity: 1; visibility: hidden;" vector-effect="non-scaling-stroke" x="-540" y="-540" rx="0" ry="0" width="1080" height="1080"/>
</g>
<g transform="matrix(1 0 0 1 540 540)" id="a1bc5566-00c3-4cdc-ad5c-bbed69fa7e11">
</g>
<g transform="matrix(1 0 0 1 540 540)">
<g style="" vector-effect="non-scaling-stroke">
		<g transform="matrix(1 0 0 1 0 -9.45)">
<path style="stroke: none; stroke-width: 1; stroke-dasharray: none; stroke-linecap: butt; stroke-dashoffset: 0; stroke-linejoin: miter; stroke-miterlimit: 4; fill: rgb(245,186,61); fill-rule: nonzero; opacity: 1;" vector-effect="non-scaling-stroke" transform=" translate(-158.75, -134.17)" d="M 93.44 244 C 48.169999999999995 245.56 30.04 258.92 14.379999999999995 245.32 C -7.390000000000004 226.39999999999998 -4.200000000000003 172.92 22.289999999999996 147.16 C 44 126 64.19 140.33 88.83 121.45 C 130.64 89.45 102.33 25.35000000000001 135.6 5.510000000000005 C 166.2 -12.75 231.2 17 245 56.89 C 253.59 81.89 237.43 96.96000000000001 249.61 118.16 C 265.95 146.59 304.3 135.57999999999998 314.83000000000004 157.03 C 328.36 184.57 288.83000000000004 251.11 234.46000000000004 265.73 C 187.61 278.3 171.22 241.3 93.44 244 Z" stroke-linecap="round"/>
</g>
		<g transform="matrix(1 0 0 1 -1.52 7.83)">
<path style="stroke: none; stroke-width: 1; stroke-dasharray: none; stroke-linecap: butt; stroke-dashoffset: 0; stroke-linejoin: miter; stroke-miterlimit: 4; fill: rgb(35,31,32); fill-rule: nonzero; opacity: 1;" vector-effect="non-scaling-stroke" transform=" translate(-157.23, -151.46)" d="M 239.35 287.25 C 216.56 287.25 192.88 274.13 175.72 251.91 L 173.49 249 C 168.43 242.28 163.19 235.33 155.49 232.91 C 147.79000000000002 230.48999999999998 138.06 233.27 129.59 240.4 C 125.50617614239147 244.02018890340122 121.69577676502297 247.93754685978357 118.18999999999996 252.12000000000006 C 115.35 255.34 112.42 258.67 109.19 261.69 C 99.29564657871714 270.9638227329276 86.9523655421458 277.2100712192443 73.62 279.69 C 67.07262132076511 280.90382298967023 60.377081685265075 281.0994609236042 53.769999999999996 280.27 C 33.61 277.69 15 264.52 6.41 246.73 C -2.5199999999999996 228.22 -0.3799999999999999 205.14 11.74 189.27999999999997 C 17.12 182.27999999999997 24.17 176.71999999999997 30.990000000000002 171.39 C 36.92 166.73999999999998 43.06 161.92999999999998 47.99 156.2 C 62.14 139.66 65.54 116.88999999999999 68.82 94.85999999999999 L 69.44 90.69999999999999 C 72.25 72 76.39 50.76 89.84 35 C 102.76 19.85 125.19 13.120000000000001 151.36 16.53 C 170.36 19 188.21 26.46 203.21 33.43 C 216.9 39.79 231.38 48.29 234.93 63.07 C 236.07 67.82 235.86 72.85 235.65 77.73 C 235.3 86.22 234.96 94.24000000000001 241.48000000000002 100.32000000000001 C 247.48000000000002 105.95 255.22000000000003 105.74000000000001 263.39000000000004 105.51 C 272.31000000000006 105.26 281.54 105.01 288.80000000000007 112.64 C 294.57000000000005 118.7 297.80000000000007 126.39 299.99000000000007 132.42000000000002 C 309.4700000000001 158.62 319.13000000000005 193.08 309.64000000000004 227.31 C 301.55000000000007 256.45 275.30000000000007 286.38 240.78000000000003 287.22 Z M 149.74 229.25 C 151.99113135676967 229.24612404195085 154.22986167569087 229.58328222251126 156.38 230.25 C 164.89 232.94 170.38 240.25 175.73 247.32 C 176.47 248.32 177.2 249.26999999999998 177.92999999999998 250.22 C 194.92999999999998 272.22 218.38 285 240.70999999999998 284.45 C 273.87 283.65 299.13 254.73 306.94 226.58999999999997 C 316.23 193.11999999999998 306.7 159.20999999999998 297.36 133.39999999999998 C 294.26 124.82999999999998 291 119.02999999999997 286.77000000000004 114.59999999999998 C 280.38000000000005 107.86999999999998 272.16 108.09999999999998 263.47 108.33999999999997 C 255.09000000000003 108.56999999999998 246.47000000000003 108.80999999999997 239.57000000000002 102.39999999999998 C 232.11 95.39999999999998 232.49 86.39999999999998 232.85000000000002 77.63999999999997 C 233.05 72.95999999999998 233.25000000000003 68.11999999999998 232.20000000000002 63.74999999999997 C 228.94 50.11 215.12 42.06 202 36 C 187.19 29.12 169.55 21.759999999999998 151 19.34 C 139.07 17.79 109.44 16.39 92 36.86 C 79 52 75 72.82 72.19 91.12 L 71.57 95.28 C 68.22999999999999 117.69 64.77 140.87 50.099999999999994 158.02 C 45 164 38.76 168.86 32.72 173.59 C 26 178.82 19.13 184.23 14 191 C 2.5 206 0.4800000000000004 228 9 245.54 C 17.17 262.53999999999996 35 275.05 54.27 277.53999999999996 C 60.594223042497745 278.3362054909796 67.00364858353659 278.14729610661215 73.27000000000004 276.97999999999996 L 73.52000000000001 278.35999999999996 L 73.2 277 C 86.00627559097309 274.6198519446778 97.85950136418396 268.61167220428894 107.35 259.69 C 110.44 256.76 113.35 253.48 116.11999999999999 250.31 C 119.71818083913622 246.0264414070236 123.62889249477904 242.01545509354378 127.82 238.31 C 134.79 232.38 142.6 229.24 149.74 229.24 Z" stroke-linecap="round"/>
</g>
</g>
</g>
</svg>