<?xml version="1.0" encoding="UTF-8" standalone="no" ?>
<!DOCTYPE svg PUBLIC "-//W3C//DTD SVG 1.1//EN" "http://www.w3.org/Graphics/SVG/1.1/DTD/svg11.dtd">
<svg xmlns="http://www.w3.org/2000/svg" xmlns:xlink="http://www.w3.org/1999/xlink" version="1.1" width="1080" height="1080" viewBox="0 0 1080 1080" xml:space="preserve">
<desc>Created with Fabric.js 5.2.4</desc>
<defs>
</defs>
<g transform="matrix(1 0 0 1 540 540)" id="9236f985-35c2-4007-87f3-48eec5a8bf0d"  >
<rect style="stroke: none; stroke-width: 1; stroke-dasharray: none; stroke-linecap: butt; stroke-dashoffset: 0; stroke-linejoin: miter; stroke-miterlimit: 4; fill: rgb(255,255,255); fill-rule: nonzero; opacity: 1; visibility: hidden;" vector-effect="non-scaling-stroke"  x="-540" y="-540" rx="0" ry="0" width="1080" height="1080" />
</g>
<g transform="matrix(1 0 0 1 540 540)" id="fd5ccae8-c0b0-4690-b615-dcd963ec967f"  >
</g>
<g transform="matrix(1 0 0 1 540 540)"  >
<g style="" vector-effect="non-scaling-stroke"   >
		<g transform="matrix(1 0 0 1 0 -27.49)"  >
<path style="stroke: none; stroke-width: 1; stroke-dasharray: none; stroke-linecap: butt; stroke-dashoffset: 0; stroke-linejoin: miter; stroke-miterlimit: 4; fill: rgb(249,159,28); fill-rule: nonzero; opacity: 1;" vector-effect="non-scaling-stroke"  transform=" translate(-171.06, -115.56)" d="M 67.12 174.67 C 28.88 148.31 0 128.42 0 98.43 C 0 73.43 20 45.260000000000005 45.58 37.940000000000005 C 89.18 25.480000000000004 117.23 82.64000000000001 159.1 71.09 C 195.26 61.1 192 13.6 234.92 2.31 C 256.13 -3.27 284.56 1.05 297.48 17.64 C 311.24 35.31 295.59000000000003 51.75 308.25 83.51 C 319.08 110.68 335.05 110.04 340.57 131.99 C 347.28 158.67000000000002 330.94 188.44 314.06 204.91000000000003 C 280.06 238.11 228.74 231.97000000000003 193.06 227.70000000000002 C 133.77 220.6 94.5 193.53 67.12 174.67 Z" stroke-linecap="round" />
</g>
		<g transform="matrix(1 0 0 1 -5.6 -4.23)"  >
<path style="stroke: none; stroke-width: 1; stroke-dasharray: none; stroke-linecap: butt; stroke-dashoffset: 0; stroke-linejoin: miter; stroke-miterlimit: 4; fill: rgb(252,198,55); fill-rule: nonzero; opacity: 1;" vector-effect="non-scaling-stroke"  transform=" translate(-165.46, -138.83)" d="M 217.1 248.83 C 171.14999999999998 269.06 96.38 275.38 54.69 228.94 C 26.369999999999997 197.39 27.49 157.28 27.759999999999998 151.05 C 30.849999999999998 79.05000000000001 105.69999999999999 24.49000000000001 172.35999999999999 15.570000000000022 C 188.91 13.350000000000021 227.83999999999997 8.13000000000002 260.61 32.14000000000002 C 302.79 63 312.41 126 295 172.59 C 276.24 222.79 230.23 243.05 217.1 248.83 Z" stroke-linecap="round" />
</g>
		<g transform="matrix(1 0 0 1 44.59 131.66)"  >
<ellipse style="stroke: none; stroke-width: 1; stroke-dasharray: none; stroke-linecap: butt; stroke-dashoffset: 0; stroke-linejoin: miter; stroke-miterlimit: 4; fill: rgb(252,198,55); fill-rule: nonzero; opacity: 1;" vector-effect="non-scaling-stroke"  cx="0" cy="0" rx="11.81" ry="11.39" />
</g>
		<g transform="matrix(1 0 0 1 -78.46 -122.11)"  >
<ellipse style="stroke: none; stroke-width: 1; stroke-dasharray: none; stroke-linecap: butt; stroke-dashoffset: 0; stroke-linejoin: miter; stroke-miterlimit: 4; fill: rgb(252,198,55); fill-rule: nonzero; opacity: 1;" vector-effect="non-scaling-stroke"  cx="0" cy="0" rx="10.98" ry="9.94" />
</g>
		<g transform="matrix(1 0 0 1 -47.8 -133.09)"  >
<ellipse style="stroke: none; stroke-width: 1; stroke-dasharray: none; stroke-linecap: butt; stroke-dashoffset: 0; stroke-linejoin: miter; stroke-miterlimit: 4; fill: rgb(252,198,55); fill-rule: nonzero; opacity: 1;" vector-effect="non-scaling-stroke"  cx="0" cy="0" rx="6.84" ry="6.01" />
</g>
		<g transform="matrix(1 0 0 1 -145.58 73.04)"  >
<ellipse style="stroke: none; stroke-width: 1; stroke-dasharray: none; stroke-linecap: butt; stroke-dashoffset: 0; stroke-linejoin: miter; stroke-miterlimit: 4; fill: rgb(252,198,55); fill-rule: nonzero; opacity: 1;" vector-effect="non-scaling-stroke"  cx="0" cy="0" rx="6.84" ry="7.46" />
</g>
</g>
</g>
</svg>